HIERARCHY
ROOT Hips
{
	OFFSET 0.000000 100.481300 0.000000
	CHANNELS 6 Xposition Yposition Zposition Xrotation Yrotation Zrotation
	JOINT Spine
	{
		OFFSET -0.279200 12.230698 -2.892100
		CHANNELS 3 Xrotation Yrotation Zrotation
		JOINT Spine1
		{
			OFFSET -0.325700 14.269203 -3.374200
			CHANNELS 3 Xrotation Yrotation Zrotation
			JOINT Spine2
			{
				OFFSET -0.372300 16.307602 -0.352600
				CHANNELS 3 Xrotation Yrotation Zrotation
				JOINT Neck
				{
					OFFSET -0.418800 17.814194 8.416900
					CHANNELS 3 Xrotation Yrotation Zrotation
					JOINT Head
					{
						OFFSET 0.000000 7.031097 3.806800
						CHANNELS 3 Xrotation Yrotation Zrotation
						JOINT HeadTop_End
						{
							OFFSET 0.000000 24.646606 12.978600
							CHANNELS 3 Xrotation Yrotation Zrotation
							End Site
							{
								OFFSET 0.000000 27.854965 0.000000
							}
						}
					}
				}
				JOINT LeftShoulder
				{
					OFFSET 16.952999 14.495407 -7.737500
					CHANNELS 3 Xrotation Yrotation Zrotation
					JOINT LeftArm
					{
						OFFSET 9.308998 -2.777710 0.208600
						CHANNELS 3 Xrotation Yrotation Zrotation
						JOINT LeftForeArm
						{
							OFFSET 29.972298 0.000000 0.000000
							CHANNELS 3 Xrotation Yrotation Zrotation
							JOINT LeftHand
							{
								OFFSET 26.026505 0.000000 0.000000
								CHANNELS 3 Xrotation Yrotation Zrotation
								JOINT LeftHandThumb1
								{
									OFFSET 12.240501 -7.147949 9.207150
									CHANNELS 3 Xrotation Yrotation Zrotation
									JOINT LeftHandThumb2
									{
										OFFSET 4.138618 -2.389435 2.389433
										CHANNELS 3 Xrotation Yrotation Zrotation
										JOINT LeftHandThumb3
										{
											OFFSET 2.726913 -1.574387 1.574386
											CHANNELS 3 Xrotation Yrotation Zrotation
											JOINT LeftHandThumb4
											{
												OFFSET 3.941010 -2.275345 2.275342
												CHANNELS 3 Xrotation Yrotation Zrotation
												End Site
												{
													OFFSET -0.005798 5.087799 0.009903
												}
											}
										}
									}
								}
								JOINT LeftHandIndex1
								{
									OFFSET 24.424698 -1.985611 5.953459
									CHANNELS 3 Xrotation Yrotation Zrotation
									JOINT LeftHandIndex2
									{
										OFFSET 6.426697 0.000000 0.000000
										CHANNELS 3 Xrotation Yrotation Zrotation
										JOINT LeftHandIndex3
										{
											OFFSET 5.337898 0.000000 0.000000
											CHANNELS 3 Xrotation Yrotation Zrotation
											JOINT LeftHandIndex4
											{
												OFFSET 4.409401 0.000000 0.000000
												CHANNELS 3 Xrotation Yrotation Zrotation
												End Site
												{
													OFFSET 0.000000 4.409363 0.014373
												}
											}
										}
									}
								}
								JOINT LeftHandMiddle1
								{
									OFFSET 23.810104 0.000000 0.000000
									CHANNELS 3 Xrotation Yrotation Zrotation
									JOINT LeftHandMiddle2
									{
										OFFSET 7.176498 0.000000 0.000000
										CHANNELS 3 Xrotation Yrotation Zrotation
										JOINT LeftHandMiddle3
										{
											OFFSET 6.774902 0.000000 0.000000
											CHANNELS 3 Xrotation Yrotation Zrotation
											JOINT LeftHandMiddle4
											{
												OFFSET 5.403328 0.000000 0.000000
												CHANNELS 3 Xrotation Yrotation Zrotation
												End Site
												{
													OFFSET -0.027702 5.403244 0.017414
												}
											}
										}
									}
								}
								JOINT LeftHandRing1
								{
									OFFSET 22.908401 -0.839279 -6.020567
									CHANNELS 3 Xrotation Yrotation Zrotation
									JOINT LeftHandRing2
									{
										OFFSET 6.337502 0.000000 0.000000
										CHANNELS 3 Xrotation Yrotation Zrotation
										JOINT LeftHandRing3
										{
											OFFSET 5.779297 0.000000 0.000000
											CHANNELS 3 Xrotation Yrotation Zrotation
											JOINT LeftHandRing4
											{
												OFFSET 4.965698 0.000000 0.000000
												CHANNELS 3 Xrotation Yrotation Zrotation
												End Site
												{
													OFFSET 0.000000 4.965668 0.016186
												}
											}
										}
									}
								}
								JOINT LeftHandPinky1
								{
									OFFSET 20.037003 -1.530319 -10.950146
									CHANNELS 3 Xrotation Yrotation Zrotation
									JOINT LeftHandPinky2
									{
										OFFSET 5.254700 0.000000 0.000000
										CHANNELS 3 Xrotation Yrotation Zrotation
										JOINT LeftHandPinky3
										{
											OFFSET 4.810204 0.000000 0.000000
											CHANNELS 3 Xrotation Yrotation Zrotation
											JOINT LeftHandPinky4
											{
												OFFSET 3.647202 0.000000 0.000000
												CHANNELS 3 Xrotation Yrotation Zrotation
												End Site
												{
													OFFSET 0.000000 3.647186 0.011889
												}
											}
										}
									}
								}
							}
						}
					}
				}
				JOINT RightShoulder
				{
					OFFSET -15.141001 14.495407 -7.737500
					CHANNELS 3 Xrotation Yrotation Zrotation
					JOINT RightArm
					{
						OFFSET -9.308998 -2.777710 0.208500
						CHANNELS 3 Xrotation Yrotation Zrotation
						JOINT RightForeArm
						{
							OFFSET -29.972300 0.000000 0.000000
							CHANNELS 3 Xrotation Yrotation Zrotation
							JOINT RightHand
							{
								OFFSET -26.026505 0.000000 0.000000
								CHANNELS 3 Xrotation Yrotation Zrotation
								JOINT RightHandThumb1
								{
									OFFSET -12.240601 -7.148026 9.207092
									CHANNELS 3 Xrotation Yrotation Zrotation
									JOINT RightHandThumb2
									{
										OFFSET -4.138618 -2.389435 2.389433
										CHANNELS 3 Xrotation Yrotation Zrotation
										JOINT RightHandThumb3
										{
											OFFSET -2.726974 -1.574417 1.574421
											CHANNELS 3 Xrotation Yrotation Zrotation
											JOINT RightHandThumb4
											{
												OFFSET -3.941010 -2.275345 2.275343
												CHANNELS 3 Xrotation Yrotation Zrotation
												End Site
												{
													OFFSET 0.005814 5.087799 0.009927
												}
											}
										}
									}
								}
								JOINT RightHandIndex1
								{
									OFFSET -24.424698 -1.985657 5.953444
									CHANNELS 3 Xrotation Yrotation Zrotation
									JOINT RightHandIndex2
									{
										OFFSET -6.426697 0.000000 0.000000
										CHANNELS 3 Xrotation Yrotation Zrotation
										JOINT RightHandIndex3
										{
											OFFSET -5.337898 0.000000 0.000000
											CHANNELS 3 Xrotation Yrotation Zrotation
											JOINT RightHandIndex4
											{
												OFFSET -4.409401 0.000000 0.000000
												CHANNELS 3 Xrotation Yrotation Zrotation
												End Site
												{
													OFFSET 0.000000 4.409363 0.014408
												}
											}
										}
									}
								}
								JOINT RightHandMiddle1
								{
									OFFSET -23.810097 0.000000 0.000000
									CHANNELS 3 Xrotation Yrotation Zrotation
									JOINT RightHandMiddle2
									{
										OFFSET -7.176498 0.000000 0.000000
										CHANNELS 3 Xrotation Yrotation Zrotation
										JOINT RightHandMiddle3
										{
											OFFSET -6.774902 0.000000 0.000000
											CHANNELS 3 Xrotation Yrotation Zrotation
											JOINT RightHandMiddle4
											{
												OFFSET -5.403328 0.000000 0.000000
												CHANNELS 3 Xrotation Yrotation Zrotation
												End Site
												{
													OFFSET 0.027702 5.403244 0.017457
												}
											}
										}
									}
								}
								JOINT RightHandRing1
								{
									OFFSET -22.908302 -0.839325 -6.020576
									CHANNELS 3 Xrotation Yrotation Zrotation
									JOINT RightHandRing2
									{
										OFFSET -6.337502 0.000000 0.000000
										CHANNELS 3 Xrotation Yrotation Zrotation
										JOINT RightHandRing3
										{
											OFFSET -5.779297 0.000000 0.000000
											CHANNELS 3 Xrotation Yrotation Zrotation
											JOINT RightHandRing4
											{
												OFFSET -4.965698 0.000000 0.000000
												CHANNELS 3 Xrotation Yrotation Zrotation
												End Site
												{
													OFFSET 0.000000 4.965668 0.016226
												}
											}
										}
									}
								}
								JOINT RightHandPinky1
								{
									OFFSET -20.037003 -1.530334 -10.950259
									CHANNELS 3 Xrotation Yrotation Zrotation
									JOINT RightHandPinky2
									{
										OFFSET -5.254700 0.000000 0.000000
										CHANNELS 3 Xrotation Yrotation Zrotation
										JOINT RightHandPinky3
										{
											OFFSET -4.810204 0.000000 0.000000
											CHANNELS 3 Xrotation Yrotation Zrotation
											JOINT RightHandPinky4
											{
												OFFSET -3.647202 0.000000 0.000000
												CHANNELS 3 Xrotation Yrotation Zrotation
												End Site
												{
													OFFSET 0.000000 3.647186 0.011917
												}
											}
										}
									}
								}
							}
						}
					}
				}
			}
		}
	}
	JOINT LeftUpLeg
	{
		OFFSET 15.427100 -6.655098 0.678600
		CHANNELS 3 Xrotation Yrotation Zrotation
		JOINT LeftLeg
		{
			OFFSET 4.081073 -39.591068 13.024000
			CHANNELS 3 Xrotation Yrotation Zrotation
			JOINT LeftFoot
			{
				OFFSET -4.081074 -37.707932 -15.979700
				CHANNELS 3 Xrotation Yrotation Zrotation
				JOINT LeftToeBase
				{
					OFFSET 5.346399 -15.068900 20.645000
					CHANNELS 3 Xrotation Yrotation Zrotation
					JOINT LeftToe_End
					{
						OFFSET 2.754700 0.931300 11.300900
						CHANNELS 3 Xrotation Yrotation Zrotation
						End Site
						{
							OFFSET 0.000000 11.669021 0.000000
						}
					}
				}
			}
		}
	}
	JOINT RightUpLeg
	{
		OFFSET -15.569500 -6.655098 0.678600
		CHANNELS 3 Xrotation Yrotation Zrotation
		JOINT RightLeg
		{
			OFFSET -4.081825 -39.591045 13.023800
			CHANNELS 3 Xrotation Yrotation Zrotation
			JOINT RightFoot
			{
				OFFSET 4.081824 -37.707954 -15.979600
				CHANNELS 3 Xrotation Yrotation Zrotation
				JOINT RightToeBase
				{
					OFFSET -5.346400 -15.068900 20.645000
					CHANNELS 3 Xrotation Yrotation Zrotation
					JOINT RightToe_End
					{
						OFFSET -2.754700 0.931300 11.300900
						CHANNELS 3 Xrotation Yrotation Zrotation
						End Site
						{
							OFFSET 0.000000 11.669021 0.000000
						}
					}
				}
			}
		}
	}
}
MOTION
Frames: 4
Frame Time: 0.033333
-3.432947 92.461784 -2.640713 29.383672 -34.195205 16.672799 -1.081110 1.676070 2.366037 -2.327878 2.532546 3.225529 -2.369175 2.507082 3.209294 -3.122052 -0.860575 1.143162 2.321495 -0.676323 -12.137126 0.000000 0.000001 -0.000001 -0.444565 7.585098 -4.586096 28.864714 -50.378307 -65.747490 0.000003 -8.153576 0.000001 -32.020053 -6.643667 18.687256 -1.540020 3.690181 6.142351 3.939030 7.948720 0.746828 -0.579464 1.575003 2.538709 0.000000 0.000001 0.000000 0.000007 -0.000000 0.000001 -0.000004 0.000000 -0.000022 0.000001 0.000003 0.000003 -0.000002 -0.000003 -0.000000 0.000004 -0.001933 0.015980 0.000006 0.001930 -0.015979 -0.000003 0.000001 -0.000000 -0.000001 -0.000001 0.000001 0.000007 -0.000000 0.000001 -0.000001 0.000001 -0.000001 0.000003 0.000000 0.000002 0.000001 -0.000002 -0.000004 -0.018071 4.054240 0.511044 -0.018103 -4.054243 -0.511049 0.000000 0.000000 -0.000001 -0.000000 0.000000 -0.000001 0.008568 -0.266783 -8.713545 -84.885120 23.358349 43.893897 0.000014 28.328256 -0.000016 -1.707905 5.504271 -46.426295 -1.849259 -3.581789 -6.586141 4.637207 -8.634117 -0.225395 -1.273760 0.137308 -2.094877 -0.000000 -0.000001 -0.000000 0.000000 0.000002 0.000000 -0.000002 -0.000002 0.000022 -0.000000 0.000003 0.000000 -0.000002 -0.000002 0.000000 0.000000 0.000002 -0.000001 -0.000000 0.000002 -0.000001 0.000006 -0.000004 0.000005 0.000000 -0.000001 -0.000002 0.000001 0.000002 -0.000001 -0.000001 0.000001 0.000000 -0.000001 0.000002 -0.000002 -0.000001 0.000002 -0.000001 0.000000 0.000002 -0.000000 -0.000002 0.000001 0.000007 -0.000001 -0.000001 -0.000000 -0.000000 -0.000002 0.000000 -16.566260 11.621375 9.067201 14.403908 9.010038 3.425613 -15.727619 16.135924 -16.825809 -0.000215 -0.000000 -0.000003 0.000000 -0.000000 -0.000000 -44.078209 2.771885 -2.113028 22.009916 -2.908540 -2.810257 -1.685892 -0.259331 6.649718 -0.000095 -0.000017 -0.000001 0.000000 -0.000002 -0.000000 
-2.872324 92.664917 -2.942902 29.644199 -31.315304 17.509743 -0.840646 1.377504 2.614857 -1.939910 1.744706 3.123157 -1.971831 1.709047 3.118316 -4.699279 -0.676267 0.625906 -0.981221 -0.428190 -12.881576 -0.000000 -0.000001 0.000000 -0.433401 7.487186 -4.485756 27.447938 -50.474183 -65.713510 -0.000004 -9.735010 0.000002 -32.987324 -9.249317 22.101872 -1.540019 3.690178 6.142352 3.939033 7.948715 0.746829 -0.579468 1.575000 2.538708 0.000002 -0.000000 0.000002 0.000004 -0.000001 0.000002 -0.000010 0.000002 -0.000022 0.000003 0.000003 0.000002 -0.000000 -0.000002 -0.000001 -0.000002 -0.001932 0.015980 0.000006 0.001930 -0.015978 -0.000009 0.000003 0.000002 -0.000003 0.000001 0.000000 0.000004 -0.000001 -0.000000 -0.000005 0.000001 -0.000001 0.000000 -0.000003 -0.000002 -0.000000 -0.000002 -0.000003 -0.018078 4.054244 0.511042 -0.018100 -4.054241 -0.511048 0.000004 0.000003 0.000005 0.000001 0.000001 0.000001 0.043938 -0.138434 -8.366788 -83.370792 25.092472 40.319013 0.000006 32.331281 -0.000004 -15.029462 6.734861 -51.459465 -1.849256 -3.581792 -6.586143 4.637210 -8.634123 -0.225392 -1.273759 0.137313 -2.094878 0.000001 0.000001 -0.000003 0.000001 -0.000002 0.000001 -0.000001 -0.000006 0.000022 -0.000001 0.000001 0.000002 -0.000001 -0.000001 0.000000 0.000001 -0.000002 0.000000 -0.000001 0.000001 -0.000001 0.000006 -0.000006 0.000002 0.000001 0.000001 0.000002 -0.000007 0.000003 -0.000003 -0.000000 -0.000002 -0.000001 0.000001 0.000001 0.000001 -0.000000 -0.000003 -0.000000 0.000001 -0.000002 0.000001 -0.000002 -0.000003 0.000009 0.000000 -0.000004 0.000000 -0.000000 0.000002 0.000001 -18.065589 10.297654 7.755858 13.515826 8.830844 2.733183 -14.888866 13.971781 -15.874003 -0.147642 0.000001 -0.000002 0.000000 -0.000000 0.000000 -45.310898 2.329511 -4.459988 22.572768 -3.678984 -3.383054 -1.874891 -0.450936 7.568673 -0.000102 0.000019 -0.000001 0.000000 -0.000000 0.000000 
-2.520081 92.752457 -3.109165 30.058218 -28.092583 18.810244 -0.644700 1.204825 2.811762 -1.622891 1.151306 2.737711 -1.647929 1.105806 2.738331 -6.293193 -0.444312 0.219578 -5.894446 0.378638 -13.519285 0.000001 -0.000002 -0.000000 -0.409918 7.301475 -4.297680 27.720780 -50.586075 -64.942661 0.000005 -10.681571 -0.000004 -32.146647 -10.990971 22.566494 -1.540020 3.690179 6.142348 3.939033 7.948719 0.746833 -0.579467 1.575004 2.538707 -0.000002 -0.000001 -0.000000 0.000006 -0.000005 -0.000002 -0.000006 0.000001 -0.000020 0.000002 0.000003 0.000003 0.000000 -0.000001 -0.000001 0.000001 -0.001934 0.015977 0.000007 0.001930 -0.015978 -0.000002 0.000001 -0.000001 0.000004 0.000000 0.000000 0.000006 -0.000005 -0.000001 -0.000002 -0.000003 -0.000001 -0.000002 -0.000002 -0.000001 0.000001 -0.000004 -0.000006 -0.018074 4.054238 0.511041 -0.018105 -4.054242 -0.511048 0.000002 0.000003 0.000003 0.000001 0.000001 0.000001 0.089424 0.108016 -8.217004 -85.230837 26.960850 35.612541 0.000001 36.089408 -0.000006 -24.216207 8.516868 -40.116027 -1.849235 -3.581793 -6.586129 4.637211 -8.634122 -0.225395 -1.273758 0.137308 -2.094879 -0.000000 0.000002 0.000001 0.000002 0.000006 0.000002 -0.000002 -0.000007 0.000023 0.000001 0.000002 -0.000000 0.000000 0.000004 -0.000002 0.000002 0.000006 0.000003 -0.000001 0.000001 0.000000 0.000005 -0.000007 0.000004 -0.000001 -0.000004 -0.000001 0.000004 0.000010 0.000002 -0.000002 0.000003 0.000000 0.000000 0.000003 0.000002 -0.000000 0.000001 0.000000 0.000002 0.000006 0.000003 -0.000003 0.000002 0.000008 -0.000000 0.000002 -0.000001 0.000000 0.000001 0.000001 -19.362558 8.787254 5.939959 12.133358 8.230999 1.750828 -13.846970 12.535509 -14.664271 -0.000009 0.000003 -0.000006 -0.000000 -0.000000 0.000000 -46.971877 2.152418 -7.253817 23.782410 -4.450010 -4.059613 -2.517489 -0.615751 8.615245 -0.000105 0.000007 -0.000001 -0.000000 0.000000 -0.000000 
-2.404076 92.651527 -3.040535 30.676989 -26.339583 20.180383 -0.557813 1.393522 2.853769 -1.494079 1.247203 2.006600 -1.525571 1.196011 2.010515 -7.710179 -0.198661 -0.095930 -10.996040 1.338568 -13.373590 -0.000000 -0.000000 -0.000000 -0.400938 7.239604 -4.249946 29.674539 -49.421746 -63.283233 0.000020 -10.741854 0.000014 -29.490517 -10.887090 20.349987 -1.540022 3.690179 6.142350 3.939037 7.948715 0.746828 -0.579467 1.575003 2.538709 0.000001 0.000003 0.000002 0.000004 -0.000000 0.000000 -0.000005 0.000002 -0.000019 0.000003 -0.000002 -0.000000 0.000003 -0.000001 -0.000002 -0.000001 -0.001931 0.015979 0.000005 0.001931 -0.015977 -0.000004 0.000003 -0.000001 -0.000003 -0.000001 -0.000002 0.000004 -0.000000 0.000001 -0.000000 -0.000001 -0.000002 -0.000002 -0.000000 -0.000000 0.000001 0.000000 0.000001 -0.018072 4.054241 0.511042 -0.018102 -4.054241 -0.511048 0.000001 0.000001 0.000001 -0.000004 -0.000002 0.000000 0.100211 0.182683 -8.251575 -83.896668 30.742056 26.635330 0.000008 37.516682 -0.000010 -30.008696 2.196575 -25.707707 -1.849253 -3.581794 -6.586141 4.637209 -8.634116 -0.225395 -1.273759 0.137310 -2.094878 0.000000 0.000001 -0.000000 0.000000 -0.000000 -0.000000 -0.000002 -0.000009 0.000022 -0.000001 0.000000 -0.000000 -0.000000 -0.000001 -0.000000 0.000001 -0.000000 -0.000000 0.000000 -0.000000 -0.000000 0.000006 -0.000004 0.000004 -0.000000 -0.000005 -0.000001 0.000003 -0.000004 0.000000 -0.000002 0.000001 -0.000000 0.000000 -0.000000 -0.000000 -0.000000 -0.000000 -0.000000 0.000000 -0.000000 0.000000 -0.000002 -0.000001 0.000007 0.000000 0.000001 0.000000 0.000000 -0.000001 0.000000 -20.036261 7.968275 4.547417 11.169723 8.038453 1.002140 -13.380304 11.807740 -13.925858 -0.000141 -0.000000 -0.000001 -0.000000 -0.000000 -0.000000 -48.471677 2.737114 -8.963632 25.000511 -4.898918 -4.665534 -3.140998 -0.739195 9.463132 -0.000103 -0.000003 0.000002 -0.000000 0.000002 0.000000 
